<svg xmlns="http://www.w3.org/2000/svg" width="113" height="113" viewBox="0 0 113 113"><path fill="#fffdd8" d="M56.5.416C25.525.416.42 25.524.42 56.496c0 30.977 25.106 56.088 56.08 56.088 30.975 0 56.082-25.11 56.082-56.09C112.582 25.525 87.474.417 56.5.417zm30.244 32.46c-2.597.09-4.39-1.462-4.47-3.818-.03-.864.193-1.62.785-2.504.578-1.134.702-1.264.687-1.757-.054-1.485-2.295-1.54-2.91-1.512-8.418.278-10.637 11.64-12.437 20.878l-.88 4.872c4.848.71 8.288-.165 10.208-1.407 2.703-1.755-.756-3.558-.32-5.553.442-2.034 2.292-3.016 3.763-3.057 2.06-.05 3.528 2.084 3.48 4.25-.073 3.583-4.825 8.504-14.33 8.303-1.157-.026-2.224-.107-3.216-.227L65.31 61.24c-1.604 7.496-3.74 17.736-11.37 26.672-6.555 7.793-13.21 9.004-16.188 9.104-5.574.19-9.27-2.783-9.4-6.75-.13-3.84 3.268-5.936 5.496-6.01 2.975-.1 5.033 2.055 5.11 4.54.077 2.103-1.02 2.76-1.747 3.155-.483.392-1.214.788-1.187 1.653.018.37.416 1.223 1.654 1.186 2.355-.083 3.92-1.25 5.014-2.026 5.43-4.525 7.52-12.41 10.257-26.762l.574-3.48c.935-4.668 1.97-9.873 3.548-15.06-3.828-2.882-6.12-6.454-11.27-7.85-3.528-.96-5.68-.146-7.192 1.767-1.79 2.265-1.197 5.213.533 6.94L42 51.485c3.506 4.05 5.422 7.202 4.7 11.44-1.144 6.77-9.206 11.962-18.74 9.027-8.138-2.507-9.657-8.267-8.68-11.44.86-2.793 3.08-3.32 5.25-2.654 2.325.72 3.235 3.543 2.57 5.713-.073.23-.192.618-.437 1.14-.27.596-.77 1.12-.984 1.82-.524 1.703 1.81 2.914 3.438 3.412 3.64 1.12 7.19-.783 8.092-3.73.838-2.706-.875-4.596-1.584-5.318l-3.447-3.69c-1.577-1.757-5.048-6.654-3.355-12.152.652-2.12 2.027-4.37 4.02-5.86 4.21-3.136 8.787-3.65 13.146-2.398 5.642 1.622 8.35 5.352 11.864 8.233 1.967-5.77 4.69-11.415 8.79-16.18 3.704-4.34 8.677-7.484 14.374-7.68 5.69-.188 9.995 2.393 10.137 6.477.058 1.736-.938 5.116-4.41 5.232z"/></svg>
