<svg height="106" viewBox="106.261 8.261 106 106" width="106" xmlns="http://www.w3.org/2000/svg"><path d="m159.262 8.533c-29.074 0-52.728 23.653-52.728 52.726 0 29.075 23.655 52.73 52.728 52.73s52.725-23.655 52.725-52.73c0-29.074-23.652-52.727-52.725-52.727zm-47.407 52.727c0-6.873 1.474-13.397 4.104-19.293l22.613 61.96c-15.813-7.687-26.718-23.902-26.718-42.667zm47.407 47.41c-4.654 0-9.145-.684-13.392-1.932l14.224-41.332 14.573 39.924c.096.234.21.45.338.652-4.928 1.733-10.222 2.688-15.743 2.688zm6.534-69.637c2.853-.15 5.426-.452 5.426-.452 2.555-.3 2.253-4.055-.304-3.904 0 0-7.677.602-12.635.602-4.658 0-12.487-.602-12.487-.602-2.554-.15-2.854 3.756-.3 3.905 0 0 2.42.303 4.973.453l7.385 20.237-10.375 31.114-17.264-51.35c2.857-.15 5.426-.452 5.426-.452 2.553-.302 2.252-4.056-.304-3.905 0 0-7.676.602-12.635.602-.89 0-1.938-.024-3.05-.058 8.477-12.87 23.047-21.368 39.61-21.368 12.34 0 23.578 4.718 32.012 12.445-.205-.013-.404-.04-.614-.04-4.654 0-7.96 4.058-7.96 8.416 0 3.905 2.253 7.213 4.656 11.117 1.805 3.158 3.91 7.216 3.91 13.074 0 4.06-1.56 8.768-3.61 15.326l-4.73 15.8zm35.063-.518c3.702 6.752 5.808 14.503 5.808 22.744 0 17.49-9.48 32.76-23.573 40.978l14.48-41.867c2.706-6.76 3.604-12.17 3.604-16.98 0-1.744-.117-3.365-.32-4.875z" fill="#fffdd8"/></svg>